<svg width="32" height="32" viewBox="0 0 32 32" xmlns="http://www.w3.org/2000/svg">
  <!-- Background circle -->
  <circle cx="16" cy="16" r="16" fill="#8B5CF6"/>
  
  <!-- Outer ring with gaps -->
  <circle cx="16" cy="16" r="12" fill="none" stroke="#FFFFFF" stroke-width="2.5"/>
  <!-- Top gap -->
  <path d="M 16 4 A 12 12 0 0 1 22.39 9.61" fill="none" stroke="#8B5CF6" stroke-width="4"/>
  <!-- Bottom gap -->
  <path d="M 9.61 22.39 A 12 12 0 0 1 16 28" fill="none" stroke="#8B5CF6" stroke-width="4"/>
  
  <!-- Inner G letter -->
  <g fill="#FFFFFF">
    <!-- G outer part -->
    <path d="M 16 8 A 8 8 0 0 0 8 16 A 8 8 0 0 0 16 24 A 8 8 0 0 0 24 16 L 20 16 L 20 20 L 16 20 A 4 4 0 0 1 12 16 A 4 4 0 0 1 16 12 A 4 4 0 0 1 20 16 L 20 12 L 24 12"/>
  </g>
</svg>