<svg width="32" height="32" viewBox="0 0 32 32" xmlns="http://www.w3.org/2000/svg">
  <!-- Background circle -->
  <circle cx="16" cy="16" r="16" fill="#8B5CF6"/>
  
  <!-- Outer ring -->
  <circle cx="16" cy="16" r="12" fill="none" stroke="#FFFFFF" stroke-width="2"/>
  
  <!-- Top gaps -->
  <path d="M 16 4 A 12 12 0 0 1 21.66 8" fill="none" stroke="#8B5CF6" stroke-width="3"/>
  <path d="M 10.34 8 A 12 12 0 0 1 16 4" fill="none" stroke="#8B5CF6" stroke-width="3"/>
  
  <!-- Inner G -->
  <path d="M 16 10 A 6 6 0 0 0 16 22 A 6 6 0 0 0 22 16 L 19 16 L 19 19 L 16 19 A 3 3 0 0 1 16 13 A 3 3 0 0 1 19 16" fill="#FFFFFF"/>
</svg>